<mxfile host="app.diagrams.net" agent="Mozilla/5.0 (X11; Linux x86_64; rv:130.0) Gecko/20100101 Firefox/130.0" version="24.7.12">
  <diagram name="Page-1" id="rHHxsHPlFDR4ShxcY8VW">
    <mxGraphModel dx="2296" dy="859" grid="1" gridSize="10" guides="1" tooltips="1" connect="1" arrows="1" fold="1" page="1" pageScale="1" pageWidth="850" pageHeight="1100" math="0" shadow="0">
      <root>
        <mxCell id="0" />
        <mxCell id="1" parent="0" />
        <mxCell id="oEPAN90ecsCuU3oU3qWt-180" style="edgeStyle=orthogonalEdgeStyle;rounded=0;orthogonalLoop=1;jettySize=auto;html=1;" edge="1" parent="1" source="oEPAN90ecsCuU3oU3qWt-178" target="oEPAN90ecsCuU3oU3qWt-179">
          <mxGeometry relative="1" as="geometry" />
        </mxCell>
        <mxCell id="oEPAN90ecsCuU3oU3qWt-178" value="Початок" style="rounded=1;whiteSpace=wrap;html=1;arcSize=48;" vertex="1" parent="1">
          <mxGeometry x="140" y="20" width="120" height="60" as="geometry" />
        </mxCell>
        <mxCell id="oEPAN90ecsCuU3oU3qWt-309" style="edgeStyle=orthogonalEdgeStyle;rounded=0;orthogonalLoop=1;jettySize=auto;html=1;entryX=0.5;entryY=0;entryDx=0;entryDy=0;" edge="1" parent="1" source="oEPAN90ecsCuU3oU3qWt-179" target="oEPAN90ecsCuU3oU3qWt-304">
          <mxGeometry relative="1" as="geometry" />
        </mxCell>
        <mxCell id="oEPAN90ecsCuU3oU3qWt-179" value="Ввід х" style="shape=parallelogram;perimeter=parallelogramPerimeter;whiteSpace=wrap;html=1;fixedSize=1;" vertex="1" parent="1">
          <mxGeometry x="140" y="120" width="120" height="60" as="geometry" />
        </mxCell>
        <mxCell id="oEPAN90ecsCuU3oU3qWt-304" value="x &amp;lt;= 0" style="rhombus;whiteSpace=wrap;html=1;" vertex="1" parent="1">
          <mxGeometry x="139.63" y="220" width="120" height="80" as="geometry" />
        </mxCell>
        <mxCell id="oEPAN90ecsCuU3oU3qWt-305" value="" style="endArrow=none;html=1;rounded=0;exitX=1;exitY=0.5;exitDx=0;exitDy=0;" edge="1" parent="1" source="oEPAN90ecsCuU3oU3qWt-304">
          <mxGeometry width="50" height="50" relative="1" as="geometry">
            <mxPoint x="259.63" y="290" as="sourcePoint" />
            <mxPoint x="279.63" y="260" as="targetPoint" />
          </mxGeometry>
        </mxCell>
        <mxCell id="oEPAN90ecsCuU3oU3qWt-314" value="1" style="edgeLabel;html=1;align=center;verticalAlign=middle;resizable=0;points=[];" vertex="1" connectable="0" parent="oEPAN90ecsCuU3oU3qWt-305">
          <mxGeometry x="-0.0963" relative="1" as="geometry">
            <mxPoint y="-10" as="offset" />
          </mxGeometry>
        </mxCell>
        <mxCell id="oEPAN90ecsCuU3oU3qWt-306" value="" style="endArrow=none;html=1;rounded=0;entryX=0;entryY=0.5;entryDx=0;entryDy=0;" edge="1" parent="1" target="oEPAN90ecsCuU3oU3qWt-304">
          <mxGeometry width="50" height="50" relative="1" as="geometry">
            <mxPoint x="119.63" y="260" as="sourcePoint" />
            <mxPoint x="149.63" y="270" as="targetPoint" />
          </mxGeometry>
        </mxCell>
        <mxCell id="oEPAN90ecsCuU3oU3qWt-313" value="0" style="edgeLabel;html=1;align=center;verticalAlign=middle;resizable=0;points=[];" vertex="1" connectable="0" parent="oEPAN90ecsCuU3oU3qWt-306">
          <mxGeometry x="0.2203" relative="1" as="geometry">
            <mxPoint y="-10" as="offset" />
          </mxGeometry>
        </mxCell>
        <mxCell id="oEPAN90ecsCuU3oU3qWt-307" value="" style="endArrow=classic;html=1;rounded=0;" edge="1" parent="1">
          <mxGeometry width="50" height="50" relative="1" as="geometry">
            <mxPoint x="119.63" y="260" as="sourcePoint" />
            <mxPoint x="120" y="340" as="targetPoint" />
          </mxGeometry>
        </mxCell>
        <mxCell id="oEPAN90ecsCuU3oU3qWt-308" value="" style="endArrow=classic;html=1;rounded=0;" edge="1" parent="1">
          <mxGeometry width="50" height="50" relative="1" as="geometry">
            <mxPoint x="279.63" y="260" as="sourcePoint" />
            <mxPoint x="279.63" y="340" as="targetPoint" />
          </mxGeometry>
        </mxCell>
        <mxCell id="oEPAN90ecsCuU3oU3qWt-335" style="edgeStyle=orthogonalEdgeStyle;rounded=0;orthogonalLoop=1;jettySize=auto;html=1;endArrow=none;endFill=0;" edge="1" parent="1" source="oEPAN90ecsCuU3oU3qWt-316">
          <mxGeometry relative="1" as="geometry">
            <mxPoint x="280" y="560" as="targetPoint" />
          </mxGeometry>
        </mxCell>
        <mxCell id="oEPAN90ecsCuU3oU3qWt-316" value="y = -x*x - 12" style="rounded=0;whiteSpace=wrap;html=1;" vertex="1" parent="1">
          <mxGeometry x="220" y="340" width="120" height="60" as="geometry" />
        </mxCell>
        <mxCell id="oEPAN90ecsCuU3oU3qWt-317" value="&lt;div&gt;(x &amp;lt;= 2)&amp;nbsp;&lt;/div&gt;&lt;div&gt;|| (x &amp;gt; 12 &amp;amp;&amp;amp; x &amp;lt;= 22)&lt;/div&gt;&lt;div&gt;|| (x &amp;gt;= 32)&lt;/div&gt;" style="rhombus;whiteSpace=wrap;html=1;fontSize=8;verticalAlign=middle;" vertex="1" parent="1">
          <mxGeometry x="60" y="340" width="120" height="80" as="geometry" />
        </mxCell>
        <mxCell id="oEPAN90ecsCuU3oU3qWt-318" value="" style="endArrow=none;html=1;rounded=0;exitX=1;exitY=0.5;exitDx=0;exitDy=0;" edge="1" parent="1" source="oEPAN90ecsCuU3oU3qWt-317">
          <mxGeometry width="50" height="50" relative="1" as="geometry">
            <mxPoint x="180" y="410" as="sourcePoint" />
            <mxPoint x="200" y="380" as="targetPoint" />
          </mxGeometry>
        </mxCell>
        <mxCell id="oEPAN90ecsCuU3oU3qWt-319" value="1" style="edgeLabel;html=1;align=center;verticalAlign=middle;resizable=0;points=[];" vertex="1" connectable="0" parent="oEPAN90ecsCuU3oU3qWt-318">
          <mxGeometry x="-0.0929" y="-1" relative="1" as="geometry">
            <mxPoint y="-11" as="offset" />
          </mxGeometry>
        </mxCell>
        <mxCell id="oEPAN90ecsCuU3oU3qWt-320" value="" style="endArrow=none;html=1;rounded=0;entryX=0;entryY=0.5;entryDx=0;entryDy=0;" edge="1" parent="1" target="oEPAN90ecsCuU3oU3qWt-317">
          <mxGeometry width="50" height="50" relative="1" as="geometry">
            <mxPoint x="40" y="380" as="sourcePoint" />
            <mxPoint x="70" y="390" as="targetPoint" />
          </mxGeometry>
        </mxCell>
        <mxCell id="oEPAN90ecsCuU3oU3qWt-321" value="0" style="edgeLabel;html=1;align=center;verticalAlign=middle;resizable=0;points=[];" vertex="1" connectable="0" parent="oEPAN90ecsCuU3oU3qWt-320">
          <mxGeometry x="-0.396" y="1" relative="1" as="geometry">
            <mxPoint x="4" y="-9" as="offset" />
          </mxGeometry>
        </mxCell>
        <mxCell id="oEPAN90ecsCuU3oU3qWt-322" value="" style="endArrow=classic;html=1;rounded=0;" edge="1" parent="1">
          <mxGeometry width="50" height="50" relative="1" as="geometry">
            <mxPoint x="40" y="380" as="sourcePoint" />
            <mxPoint x="40" y="460" as="targetPoint" />
          </mxGeometry>
        </mxCell>
        <mxCell id="oEPAN90ecsCuU3oU3qWt-323" value="" style="endArrow=classic;html=1;rounded=0;" edge="1" parent="1">
          <mxGeometry width="50" height="50" relative="1" as="geometry">
            <mxPoint x="200" y="380" as="sourcePoint" />
            <mxPoint x="200" y="460" as="targetPoint" />
          </mxGeometry>
        </mxCell>
        <mxCell id="oEPAN90ecsCuU3oU3qWt-325" style="edgeStyle=orthogonalEdgeStyle;rounded=0;orthogonalLoop=1;jettySize=auto;html=1;endArrow=none;endFill=0;" edge="1" parent="1" source="oEPAN90ecsCuU3oU3qWt-324">
          <mxGeometry relative="1" as="geometry">
            <mxPoint x="200" y="710" as="targetPoint" />
          </mxGeometry>
        </mxCell>
        <mxCell id="oEPAN90ecsCuU3oU3qWt-324" value="printf(&quot;no such value exists\n&quot;);" style="shape=parallelogram;perimeter=parallelogramPerimeter;whiteSpace=wrap;html=1;fixedSize=1;fontSize=8;" vertex="1" parent="1">
          <mxGeometry x="140" y="460" width="120" height="60" as="geometry" />
        </mxCell>
        <mxCell id="oEPAN90ecsCuU3oU3qWt-327" style="edgeStyle=orthogonalEdgeStyle;rounded=0;orthogonalLoop=1;jettySize=auto;html=1;entryX=0.5;entryY=0;entryDx=0;entryDy=0;" edge="1" parent="1" source="oEPAN90ecsCuU3oU3qWt-326" target="oEPAN90ecsCuU3oU3qWt-328">
          <mxGeometry relative="1" as="geometry">
            <mxPoint x="40" y="560" as="targetPoint" />
          </mxGeometry>
        </mxCell>
        <mxCell id="oEPAN90ecsCuU3oU3qWt-326" value="&lt;div&gt;y = -9 * x*x*x&lt;/div&gt;&lt;div&gt;+ 5 * x*x&lt;/div&gt;" style="rounded=0;whiteSpace=wrap;html=1;" vertex="1" parent="1">
          <mxGeometry x="-20" y="460" width="120" height="60" as="geometry" />
        </mxCell>
        <mxCell id="oEPAN90ecsCuU3oU3qWt-337" style="edgeStyle=orthogonalEdgeStyle;rounded=0;orthogonalLoop=1;jettySize=auto;html=1;endArrow=none;endFill=0;" edge="1" parent="1" source="oEPAN90ecsCuU3oU3qWt-328">
          <mxGeometry relative="1" as="geometry">
            <mxPoint x="40" y="710" as="targetPoint" />
          </mxGeometry>
        </mxCell>
        <mxCell id="oEPAN90ecsCuU3oU3qWt-328" value="printf(&quot;%f\n&quot;, y);" style="shape=parallelogram;perimeter=parallelogramPerimeter;whiteSpace=wrap;html=1;fixedSize=1;" vertex="1" parent="1">
          <mxGeometry x="-20" y="600" width="120" height="60" as="geometry" />
        </mxCell>
        <mxCell id="oEPAN90ecsCuU3oU3qWt-334" value="Кінець" style="rounded=1;whiteSpace=wrap;html=1;arcSize=48;" vertex="1" parent="1">
          <mxGeometry x="60" y="750" width="120" height="60" as="geometry" />
        </mxCell>
        <mxCell id="oEPAN90ecsCuU3oU3qWt-336" value="" style="endArrow=classic;html=1;rounded=0;" edge="1" parent="1">
          <mxGeometry width="50" height="50" relative="1" as="geometry">
            <mxPoint x="280" y="560" as="sourcePoint" />
            <mxPoint x="40" y="560" as="targetPoint" />
          </mxGeometry>
        </mxCell>
        <mxCell id="oEPAN90ecsCuU3oU3qWt-338" value="" style="endArrow=none;html=1;rounded=0;" edge="1" parent="1">
          <mxGeometry width="50" height="50" relative="1" as="geometry">
            <mxPoint x="40" y="710" as="sourcePoint" />
            <mxPoint x="200" y="710" as="targetPoint" />
          </mxGeometry>
        </mxCell>
        <mxCell id="oEPAN90ecsCuU3oU3qWt-339" value="" style="endArrow=classic;html=1;rounded=0;" edge="1" parent="1" target="oEPAN90ecsCuU3oU3qWt-334">
          <mxGeometry width="50" height="50" relative="1" as="geometry">
            <mxPoint x="120" y="710" as="sourcePoint" />
            <mxPoint x="240" y="670" as="targetPoint" />
          </mxGeometry>
        </mxCell>
      </root>
    </mxGraphModel>
  </diagram>
</mxfile>
